<svg width="373" height="75" viewBox="0 0 373 75" fill="none" xmlns="http://www.w3.org/2000/svg">
<foreignObject x="3" y="36.871" width="75.4124" height="31.3748"><div xmlns="http://www.w3.org/1999/xhtml" style="backdrop-filter:blur(0.5px);clip-path:url(#bgblur_0_2618_84_clip_path);height:100%;width:100%"></div></foreignObject><g data-figma-bg-blur-radius="1">
<path d="M40.3483 37.9372C40.5787 37.8489 40.8337 37.8489 41.0641 37.9372L76.7704 51.6246C77.6264 51.9527 77.6264 53.1639 76.7703 53.4921L41.0641 67.1794C40.8337 67.2678 40.5787 67.2678 40.3483 67.1794L4.64206 53.4921C3.78598 53.1639 3.78598 51.9527 4.64207 51.6246L40.3483 37.9372Z" fill="#004067" fill-opacity="0.8"/>
<path d="M40.5275 38.4045C40.6427 38.3604 40.7697 38.3604 40.8849 38.4045L76.591 52.091C77.019 52.2551 77.019 52.8615 76.591 53.0256L40.8849 66.7121C40.7697 66.7562 40.6427 66.7562 40.5275 66.7121L4.82144 53.0256C4.3934 52.8615 4.3934 52.2551 4.82144 52.091L40.5275 38.4045Z" stroke="black" stroke-opacity="0.1"/>
</g>
<foreignObject x="3" y="26.6043" width="75.4124" height="31.3748"><div xmlns="http://www.w3.org/1999/xhtml" style="backdrop-filter:blur(0.5px);clip-path:url(#bgblur_1_2618_84_clip_path);height:100%;width:100%"></div></foreignObject><g data-figma-bg-blur-radius="1">
<path d="M40.3483 27.6705C40.5787 27.5822 40.8337 27.5822 41.0641 27.6705L76.7704 41.3579C77.6264 41.6861 77.6264 42.8972 76.7703 43.2254L41.0641 56.9128C40.8337 57.0011 40.5787 57.0011 40.3483 56.9128L4.64206 43.2254C3.78598 42.8972 3.78598 41.6861 4.64207 41.3579L40.3483 27.6705Z" fill="#4BADFF" fill-opacity="0.61"/>
<path d="M40.5275 28.1378C40.6427 28.0937 40.7697 28.0937 40.8849 28.1378L76.591 41.8243C77.019 41.9884 77.019 42.5948 76.591 42.7589L40.8849 56.4454C40.7697 56.4896 40.6427 56.4896 40.5275 56.4454L4.82144 42.7589C4.3934 42.5948 4.3934 41.9884 4.82144 41.8243L40.5275 28.1378Z" stroke="black" stroke-opacity="0.1"/>
</g>
<g filter="url(#filter2_d_2618_84)">
<path d="M40.3483 17.4039C40.5787 17.3155 40.8337 17.3155 41.0641 17.4039L76.7704 31.0913C77.6264 31.4194 77.6264 32.6306 76.7703 32.9587L41.0641 46.6461C40.8337 46.7345 40.5787 46.7345 40.3483 46.6461L4.64206 32.9587C3.78598 32.6306 3.78598 31.4194 4.64207 31.0912L40.3483 17.4039Z" fill="#FF0000" fill-opacity="0.61" shape-rendering="crispEdges"/>
<path d="M40.5275 17.8712C40.6427 17.827 40.7697 17.827 40.8849 17.8712L76.591 31.5577C77.019 31.7218 77.019 32.3282 76.591 32.4922L40.8849 46.1788C40.7697 46.2229 40.6427 46.2229 40.5275 46.1788L4.82144 32.4922C4.3934 32.3282 4.3934 31.7218 4.82144 31.5577L40.5275 17.8712Z" stroke="#D12323" stroke-opacity="0.67" shape-rendering="crispEdges"/>
</g>
<foreignObject x="3" y="6.07098" width="75.4124" height="31.3748"><div xmlns="http://www.w3.org/1999/xhtml" style="backdrop-filter:blur(0.5px);clip-path:url(#bgblur_2_2618_84_clip_path);height:100%;width:100%"></div></foreignObject><g data-figma-bg-blur-radius="1">
<path d="M40.3483 7.13721C40.5787 7.04887 40.8337 7.04887 41.0641 7.13721L76.7704 20.8246C77.6264 21.1528 77.6264 22.3639 76.7703 22.6921L41.0641 36.3795C40.8337 36.4678 40.5787 36.4678 40.3483 36.3795L4.64206 22.6921C3.78598 22.3639 3.78598 21.1528 4.64207 20.8246L40.3483 7.13721Z" fill="#FFCE4F" fill-opacity="0.61"/>
<path d="M40.5275 7.60449C40.6427 7.56037 40.7697 7.56037 40.8849 7.60449L76.591 21.291C77.019 21.4551 77.019 22.0615 76.591 22.2256L40.8849 35.9121C40.7697 35.9562 40.6427 35.9562 40.5275 35.9121L4.82144 22.2256C4.3934 22.0615 4.3934 21.4551 4.82144 21.291L40.5275 7.60449Z" stroke="black" stroke-opacity="0.1"/>
</g>
<g filter="url(#filter4_d_2618_84)">
<path d="M90.6096 66V7.81818H114.871C119.227 7.81818 122.873 8.43371 125.808 9.66477C128.763 10.8958 130.979 12.6193 132.456 14.8352C133.952 17.0511 134.701 19.6174 134.701 22.5341C134.701 24.75 134.237 26.7292 133.308 28.4716C132.38 30.1951 131.102 31.625 129.473 32.7614C127.844 33.8977 125.96 34.6932 123.82 35.1477V35.7159C126.168 35.8295 128.337 36.464 130.326 37.6193C132.333 38.7746 133.943 40.3845 135.155 42.4489C136.367 44.4943 136.973 46.9186 136.973 49.7216C136.973 52.8466 136.178 55.6402 134.587 58.1023C132.996 60.5455 130.695 62.4773 127.683 63.8977C124.672 65.2992 121.017 66 116.718 66H90.6096ZM104.672 54.6648H113.365C116.415 54.6648 118.659 54.0871 120.098 52.9318C121.557 51.7765 122.286 50.1667 122.286 48.1023C122.286 46.6061 121.935 45.3182 121.235 44.2386C120.534 43.1402 119.54 42.2973 118.252 41.7102C116.964 41.1042 115.42 40.8011 113.621 40.8011H104.672V54.6648ZM104.672 31.7386H112.456C113.99 31.7386 115.354 31.483 116.547 30.9716C117.74 30.4602 118.668 29.7216 119.331 28.7557C120.013 27.7898 120.354 26.625 120.354 25.2614C120.354 23.3106 119.663 21.7765 118.28 20.6591C116.897 19.5417 115.032 18.983 112.683 18.983H104.672V31.7386ZM171.888 47.1648V22.3636H185.752V66H172.513V57.875H172.058C171.093 60.5455 169.445 62.6667 167.115 64.2386C164.805 65.7917 162.011 66.5682 158.735 66.5682C155.761 66.5682 153.147 65.8864 150.894 64.5227C148.64 63.1591 146.888 61.2557 145.638 58.8125C144.388 56.3504 143.754 53.4716 143.735 50.1761V22.3636H157.627V47.4489C157.646 49.8163 158.271 51.6818 159.502 53.0455C160.733 54.4091 162.409 55.0909 164.53 55.0909C165.913 55.0909 167.153 54.7879 168.252 54.1818C169.369 53.5568 170.25 52.6572 170.894 51.483C171.557 50.2898 171.888 48.8504 171.888 47.1648ZM194.594 66V22.3636H208.486V66H194.594ZM201.554 17.2784C199.603 17.2784 197.927 16.6345 196.526 15.3466C195.124 14.0398 194.424 12.4678 194.424 10.6307C194.424 8.8125 195.124 7.25947 196.526 5.97159C197.927 4.66477 199.603 4.01136 201.554 4.01136C203.524 4.01136 205.2 4.66477 206.583 5.97159C207.984 7.25947 208.685 8.8125 208.685 10.6307C208.685 12.4678 207.984 14.0398 206.583 15.3466C205.2 16.6345 203.524 17.2784 201.554 17.2784ZM231.22 7.81818V66H217.328V7.81818H231.22ZM256 66.625C252.781 66.625 249.854 65.7917 247.222 64.125C244.589 62.4583 242.487 59.9583 240.915 56.625C239.343 53.2917 238.557 49.1534 238.557 44.2102C238.557 39.0777 239.371 34.8542 241 31.5398C242.629 28.2254 244.76 25.7727 247.392 24.1818C250.044 22.5909 252.894 21.7955 255.943 21.7955C258.235 21.7955 260.195 22.1932 261.824 22.9886C263.453 23.7652 264.798 24.7689 265.858 26C266.919 27.2311 267.724 28.5095 268.273 29.8352H268.557V7.81818H282.449V66H268.699V58.9261H268.273C267.686 60.2708 266.853 61.5303 265.773 62.7045C264.693 63.8788 263.339 64.8258 261.71 65.5455C260.101 66.2652 258.197 66.625 256 66.625ZM260.83 55.8011C262.515 55.8011 263.955 55.3277 265.148 54.3807C266.341 53.4148 267.26 52.0606 267.904 50.3182C268.548 48.5758 268.87 46.5303 268.87 44.1818C268.87 41.7955 268.548 39.7405 267.904 38.017C267.279 36.2936 266.36 34.9678 265.148 34.0398C263.955 33.1117 262.515 32.6477 260.83 32.6477C259.106 32.6477 257.648 33.1212 256.455 34.0682C255.262 35.0152 254.353 36.3504 253.728 38.0739C253.121 39.7973 252.818 41.8333 252.818 44.1818C252.818 46.5303 253.131 48.5758 253.756 50.3182C254.381 52.0606 255.281 53.4148 256.455 54.3807C257.648 55.3277 259.106 55.8011 260.83 55.8011ZM311.604 66.8239C307.021 66.8239 303.081 65.8864 299.786 64.0114C296.509 62.1174 293.981 59.4848 292.201 56.1136C290.439 52.7235 289.558 48.7936 289.558 44.3239C289.558 39.8352 290.439 35.9053 292.201 32.5341C293.981 29.1439 296.509 26.5114 299.786 24.6364C303.081 22.7424 307.021 21.7955 311.604 21.7955C316.187 21.7955 320.117 22.7424 323.394 24.6364C326.689 26.5114 329.218 29.1439 330.979 32.5341C332.759 35.9053 333.649 39.8352 333.649 44.3239C333.649 48.7936 332.759 52.7235 330.979 56.1136C329.218 59.4848 326.689 62.1174 323.394 64.0114C320.117 65.8864 316.187 66.8239 311.604 66.8239ZM311.689 56.3409C313.356 56.3409 314.767 55.8295 315.922 54.8068C317.077 53.7841 317.958 52.3636 318.564 50.5455C319.189 48.7273 319.502 46.625 319.502 44.2386C319.502 41.8144 319.189 39.6932 318.564 37.875C317.958 36.0568 317.077 34.6364 315.922 33.6136C314.767 32.5909 313.356 32.0795 311.689 32.0795C309.966 32.0795 308.507 32.5909 307.314 33.6136C306.14 34.6364 305.24 36.0568 304.615 37.875C304.009 39.6932 303.706 41.8144 303.706 44.2386C303.706 46.625 304.009 48.7273 304.615 50.5455C305.24 52.3636 306.14 53.7841 307.314 54.8068C308.507 55.8295 309.966 56.3409 311.689 56.3409ZM340.766 66V22.3636H354.26V30.3182H354.715C355.51 27.4394 356.808 25.2992 358.607 23.8977C360.406 22.4773 362.499 21.767 364.885 21.767C365.529 21.767 366.192 21.8144 366.874 21.9091C367.556 21.9848 368.19 22.108 368.777 22.2784V34.3523C368.114 34.125 367.243 33.9451 366.164 33.8125C365.103 33.6799 364.156 33.6136 363.323 33.6136C361.675 33.6136 360.188 33.983 358.862 34.7216C357.556 35.4413 356.523 36.4545 355.766 37.7614C355.027 39.0492 354.658 40.5644 354.658 42.3068V66H340.766Z" fill="url(#paint0_linear_2618_84)"/>
</g>
<defs>
<clipPath id="bgblur_0_2618_84_clip_path" transform="translate(-3 -36.871)"><path d="M40.3483 37.9372C40.5787 37.8489 40.8337 37.8489 41.0641 37.9372L76.7704 51.6246C77.6264 51.9527 77.6264 53.1639 76.7703 53.4921L41.0641 67.1794C40.8337 67.2678 40.5787 67.2678 40.3483 67.1794L4.64206 53.4921C3.78598 53.1639 3.78598 51.9527 4.64207 51.6246L40.3483 37.9372Z"/>
</clipPath><clipPath id="bgblur_1_2618_84_clip_path" transform="translate(-3 -26.6043)"><path d="M40.3483 27.6705C40.5787 27.5822 40.8337 27.5822 41.0641 27.6705L76.7704 41.3579C77.6264 41.6861 77.6264 42.8972 76.7703 43.2254L41.0641 56.9128C40.8337 57.0011 40.5787 57.0011 40.3483 56.9128L4.64206 43.2254C3.78598 42.8972 3.78598 41.6861 4.64207 41.3579L40.3483 27.6705Z"/>
</clipPath><filter id="filter2_d_2618_84" x="0" y="15.3376" width="81.4124" height="37.3748" filterUnits="userSpaceOnUse" color-interpolation-filters="sRGB">
<feFlood flood-opacity="0" result="BackgroundImageFix"/>
<feColorMatrix in="SourceAlpha" type="matrix" values="0 0 0 0 0 0 0 0 0 0 0 0 0 0 0 0 0 0 127 0" result="hardAlpha"/>
<feOffset dy="2"/>
<feGaussianBlur stdDeviation="2"/>
<feComposite in2="hardAlpha" operator="out"/>
<feColorMatrix type="matrix" values="0 0 0 0 0 0 0 0 0 0 0 0 0 0 0 0 0 0 0.25 0"/>
<feBlend mode="normal" in2="BackgroundImageFix" result="effect1_dropShadow_2618_84"/>
<feBlend mode="normal" in="SourceGraphic" in2="effect1_dropShadow_2618_84" result="shape"/>
</filter>
<clipPath id="bgblur_2_2618_84_clip_path" transform="translate(-3 -6.07098)"><path d="M40.3483 7.13721C40.5787 7.04887 40.8337 7.04887 41.0641 7.13721L76.7704 20.8246C77.6264 21.1528 77.6264 22.3639 76.7703 22.6921L41.0641 36.3795C40.8337 36.4678 40.5787 36.4678 40.3483 36.3795L4.64206 22.6921C3.78598 22.3639 3.78598 21.1528 4.64207 20.8246L40.3483 7.13721Z"/>
</clipPath><filter id="filter4_d_2618_84" x="86.6096" y="4.01135" width="286.168" height="70.8125" filterUnits="userSpaceOnUse" color-interpolation-filters="sRGB">
<feFlood flood-opacity="0" result="BackgroundImageFix"/>
<feColorMatrix in="SourceAlpha" type="matrix" values="0 0 0 0 0 0 0 0 0 0 0 0 0 0 0 0 0 0 127 0" result="hardAlpha"/>
<feOffset dy="4"/>
<feGaussianBlur stdDeviation="2"/>
<feComposite in2="hardAlpha" operator="out"/>
<feColorMatrix type="matrix" values="0 0 0 0 0 0 0 0 0 0 0 0 0 0 0 0 0 0 0.25 0"/>
<feBlend mode="normal" in2="BackgroundImageFix" result="effect1_dropShadow_2618_84"/>
<feBlend mode="normal" in="SourceGraphic" in2="effect1_dropShadow_2618_84" result="shape"/>
</filter>
<linearGradient id="paint0_linear_2618_84" x1="228.206" y1="0" x2="228.206" y2="73" gradientUnits="userSpaceOnUse">
<stop offset="0.391667"/>
<stop offset="1" stop-color="#9CC5E8"/>
</linearGradient>
</defs>
</svg>
